<svg version="1.1" viewBox="0.0 0.0 623.9527559055118 721.8267716535433" fill="none" stroke="none" stroke-linecap="square" stroke-miterlimit="10" xmlns:xlink="http://www.w3.org/1999/xlink" xmlns="http://www.w3.org/2000/svg"><clipPath id="p.0"><path d="m0 0l623.95276 0l0 721.8268l-623.95276 0l0 -721.8268z" clip-rule="nonzero"/></clipPath><g clip-path="url(#p.0)"><path fill="#000000" fill-opacity="0.0" d="m0 0l623.95276 0l0 721.8268l-623.95276 0z" fill-rule="evenodd"/><path fill="#000000" d="m266.75116 701.722c1.8118896 -1.0870361 14.494751 -16.81366 18.69815 -29.13385c4.20343 -12.32019 4.6382446 -30.655273 6.5223083 -44.787415c1.8840942 -14.13208 5.6517944 -31.453186 4.7821655 -40.00525c-0.8696594 -8.552063 -8.115936 -11.234436 -10.0 -11.307068c-1.8840942 -0.072631836 0.14523315 10.871399 -1.3044739 10.871399c-1.4496765 0 -5.726593 -10.871399 -7.3937073 -10.871399c-1.6670837 0 -3.9859924 4.2038574 -2.6089172 10.871399c1.3770752 6.6675415 8.914276 21.524048 10.871399 29.13385c1.9571228 7.6098022 0.94400024 12.17627 0.8713989 16.524963c-0.072631836 4.348633 0.722229 9.277344 -1.3070984 9.566895c-2.0292969 0.28961182 -10.433929 -9.206055 -10.868774 -7.8294067c-0.43481445 1.376648 8.3324585 8.696899 8.259857 16.089233c-0.072631836 7.392395 -5.9418335 19.785706 -8.695526 28.265137c-2.7537231 8.479431 -9.638672 23.698608 -7.826782 22.611511z" fill-rule="evenodd"/><path stroke="#000000" stroke-width="1.0" stroke-linejoin="round" stroke-linecap="butt" d="m266.75116 701.722c1.8118896 -1.0870361 14.494751 -16.81366 18.69815 -29.13385c4.20343 -12.32019 4.6382446 -30.655273 6.5223083 -44.787415c1.8840942 -14.13208 5.6517944 -31.453186 4.7821655 -40.00525c-0.8696594 -8.552063 -8.115936 -11.234436 -10.0 -11.307068c-1.8840942 -0.072631836 0.14523315 10.871399 -1.3044739 10.871399c-1.4496765 0 -5.726593 -10.871399 -7.3937073 -10.871399c-1.6670837 0 -3.9859924 4.2038574 -2.6089172 10.871399c1.3770752 6.6675415 8.914276 21.524048 10.871399 29.13385c1.9571228 7.6098022 0.94400024 12.17627 0.8713989 16.524963c-0.072631836 4.348633 0.722229 9.277344 -1.3070984 9.566895c-2.0292969 0.28961182 -10.433929 -9.206055 -10.868774 -7.8294067c-0.43481445 1.376648 8.3324585 8.696899 8.259857 16.089233c-0.072631836 7.392395 -5.9418335 19.785706 -8.695526 28.265137c-2.7537231 8.479431 -9.638672 23.698608 -7.826782 22.611511z" fill-rule="evenodd"/><path fill="#000000" d="m297.6248 592.10565c1.376648 -3.9138184 4.4190674 -16.163147 8.259827 -23.48291c3.8407898 -7.319824 7.465027 -15.362671 14.78479 -20.43573c7.319763 -5.073059 19.78476 -9.132996 29.13385 -10.0026245c9.349091 -0.8696289 20.365265 1.1610107 26.960632 4.78479c6.5953674 3.6237793 8.480743 10.435669 12.611542 16.958008c4.1307983 6.522278 11.520996 12.754578 12.173248 22.175842c0.6522217 9.421265 -12.24585 28.263794 -8.259857 34.351685c3.9859924 6.0879517 23.11679 2.7554932 32.175873 2.1759033c9.0590515 -0.5796509 16.597961 -4.4938965 22.178467 -5.6535645c5.580475 -1.159668 8.695526 0.8696289 11.304443 -1.3044434c2.6089478 -2.1741333 5.2913513 -5.9422607 4.3490906 -11.740173c-0.94226074 -5.7979126 -8.915558 -21.380127 -10.0026245 -23.047241c-1.0870361 -1.6671143 6.7414856 9.855652 3.4803162 13.044617c-3.261139 3.1889648 -16.741913 6.6688232 -23.047241 6.0892334c-6.3053284 -0.57958984 -15.72702 -7.3201904 -14.78479 -9.566956c0.94226074 -2.246704 14.857849 -2.3188477 20.438324 -3.91333c5.5805054 -1.5945435 17.03064 0.86920166 13.044617 -5.6535645c-3.9859924 -6.522766 -27.394135 -25.07611 -36.9606 -33.48297c-9.566498 -8.406799 -13.698181 -12.030151 -20.438324 -16.958008c-6.7401733 -4.9277954 -12.320648 -9.637329 -20.002625 -12.608887c-7.6819763 -2.9715881 -19.05951 -4.0608215 -26.089264 -5.2204895c-7.029724 -1.159668 -7.972412 -3.5494385 -16.089233 -1.7375183c-8.116791 1.8118896 -27.17627 8.985535 -32.61154 12.608887c-5.4352417 3.623413 -0.5069885 8.62384 0 9.131287c0.5069885 0.50738525 2.5350037 -5.0722046 3.0419922 -6.086609" fill-rule="evenodd"/><path stroke="#000000" stroke-width="1.0" stroke-linejoin="round" stroke-linecap="butt" d="m297.6248 592.10565c1.376648 -3.9138184 4.4190674 -16.163147 8.259827 -23.48291c3.8407898 -7.319824 7.465027 -15.362671 14.78479 -20.43573c7.319763 -5.073059 19.78476 -9.132996 29.13385 -10.0026245c9.349091 -0.8696289 20.365265 1.1610107 26.960632 4.78479c6.5953674 3.6237793 8.480743 10.435669 12.611542 16.958008c4.1307983 6.522278 11.520996 12.754578 12.173248 22.175842c0.6522217 9.421265 -12.24585 28.263794 -8.259857 34.351685c3.9859924 6.0879517 23.11679 2.7554932 32.175873 2.1759033c9.0590515 -0.5796509 16.597961 -4.4938965 22.178467 -5.6535645c5.580475 -1.159668 8.695526 0.8696289 11.304443 -1.3044434c2.6089478 -2.1741333 5.2913513 -5.9422607 4.3490906 -11.740173c-0.94226074 -5.7979126 -8.915558 -21.380127 -10.0026245 -23.047241c-1.0870361 -1.6671143 6.7414856 9.855652 3.4803162 13.044617c-3.261139 3.1889648 -16.741913 6.6688232 -23.047241 6.0892334c-6.3053284 -0.57958984 -15.72702 -7.3201904 -14.78479 -9.566956c0.94226074 -2.246704 14.857849 -2.3188477 20.438324 -3.91333c5.5805054 -1.5945435 17.03064 0.86920166 13.044617 -5.6535645c-3.9859924 -6.522766 -27.394135 -25.07611 -36.9606 -33.48297c-9.566498 -8.406799 -13.698181 -12.030151 -20.438324 -16.958008c-6.7401733 -4.9277954 -12.320648 -9.637329 -20.002625 -12.608887c-7.6819763 -2.9715881 -19.05951 -4.0608215 -26.089264 -5.2204895c-7.029724 -1.159668 -7.972412 -3.5494385 -16.089233 -1.7375183c-8.116791 1.8118896 -27.17627 8.985535 -32.61154 12.608887c-5.4352417 3.623413 -0.5069885 8.62384 0 9.131287c0.5069885 0.50738525 2.5350037 -5.0722046 3.0419922 -6.086609" fill-rule="evenodd"/><path fill="#000000" d="m299.79846 525.13934c-2.1741333 2.9711304 -6.1592407 12.754578 -7.391083 16.958008c-1.231842 4.203369 0.43481445 5.79834 0 8.262451c-0.43481445 2.4641113 -2.7537231 2.3914795 -2.6089172 6.522278c0.14477539 4.1307983 2.1732178 12.319824 3.4776611 18.262512c1.3044739 5.942688 3.0446472 18.408142 4.3490906 17.393677c1.3044739 -1.0144043 3.985138 -18.117249 3.4776917 -23.480286c-0.5074463 -5.363098 -5.2904663 -6.161438 -6.5223083 -8.698181c-1.231842 -2.5367432 -1.4483643 -4.20343 -0.8687744 -6.522339c0.57962036 -2.3188477 3.6942444 -4.7095337 4.346466 -7.3910522c0.6522217 -2.6815186 -1.6653442 -5.0021973 -0.43307495 -8.698181c1.2322998 -3.695984 7.464569 -11.37616 7.826782 -13.477661c0.36221313 -2.1015015 -3.4794312 -2.102356 -5.653534 0.8687744z" fill-rule="evenodd"/><path stroke="#000000" stroke-width="1.0" stroke-linejoin="round" stroke-linecap="butt" d="m299.79846 525.13934c-2.1741333 2.9711304 -6.1592407 12.754578 -7.391083 16.958008c-1.231842 4.203369 0.43481445 5.79834 0 8.262451c-0.43481445 2.4641113 -2.7537231 2.3914795 -2.6089172 6.522278c0.14477539 4.1307983 2.1732178 12.319824 3.4776611 18.262512c1.3044739 5.942688 3.0446472 18.408142 4.3490906 17.393677c1.3044739 -1.0144043 3.985138 -18.117249 3.4776917 -23.480286c-0.5074463 -5.363098 -5.2904663 -6.161438 -6.5223083 -8.698181c-1.231842 -2.5367432 -1.4483643 -4.20343 -0.8687744 -6.522339c0.57962036 -2.3188477 3.6942444 -4.7095337 4.346466 -7.3910522c0.6522217 -2.6815186 -1.6653442 -5.0021973 -0.43307495 -8.698181c1.2322998 -3.695984 7.464569 -11.37616 7.826782 -13.477661c0.36221313 -2.1015015 -3.4794312 -2.102356 -5.653534 0.8687744z" fill-rule="evenodd"/><path fill="#000000" d="m291.1028 502.13107c-1.5945129 -6.7926636 -6.378845 -4.1307983 -10.0026245 -10.435699c-3.6238098 -6.304901 -10.145691 -21.016205 -11.740173 -27.393707c-1.5944824 -6.3775024 2.9702454 -3.2419128 2.1732178 -10.871399c-0.7970276 -7.629486 -5.361328 -31.696838 -6.9553833 -34.905518c-1.5940247 -3.2086487 -3.0437317 9.130798 -2.6089172 15.653564c0.43481445 6.5227356 3.913391 16.163147 5.217865 23.48294c1.3044434 7.319763 0.14523315 9.347321 2.6089172 20.4357c2.463684 11.088348 11.37619 37.61502 12.173218 46.09445c0.7970276 8.479492 -7.753723 0.5065918 -7.391083 4.7821655c0.3626709 4.2755737 6.8854065 20.29181 9.566956 20.871399c2.6815186 0.57958984 5.3626404 -9.441406 6.5223083 -17.393677c1.159668 -7.9523315 2.030182 -23.527588 0.43569946 -30.32022z" fill-rule="evenodd"/><path stroke="#000000" stroke-width="1.0" stroke-linejoin="round" stroke-linecap="butt" d="m291.1028 502.13107c-1.5945129 -6.7926636 -6.378845 -4.1307983 -10.0026245 -10.435699c-3.6238098 -6.304901 -10.145691 -21.016205 -11.740173 -27.393707c-1.5944824 -6.3775024 2.9702454 -3.2419128 2.1732178 -10.871399c-0.7970276 -7.629486 -5.361328 -31.696838 -6.9553833 -34.905518c-1.5940247 -3.2086487 -3.0437317 9.130798 -2.6089172 15.653564c0.43481445 6.5227356 3.913391 16.163147 5.217865 23.48294c1.3044434 7.319763 0.14523315 9.347321 2.6089172 20.4357c2.463684 11.088348 11.37619 37.61502 12.173218 46.09445c0.7970276 8.479492 -7.753723 0.5065918 -7.391083 4.7821655c0.3626709 4.2755737 6.8854065 20.29181 9.566956 20.871399c2.6815186 0.57958984 5.3626404 -9.441406 6.5223083 -17.393677c1.159668 -7.9523315 2.030182 -23.527588 0.43569946 -30.32022z" fill-rule="evenodd"/><path fill="#000000" d="m285.88135 562.6536c0.43481445 -1.6670532 2.9711304 3.7677612 -1.3044739 -4.34906c-4.2755737 -8.116821 -20.725708 -41.307983 -24.34906 -44.351685c-3.6233826 -3.0437622 1.5218506 18.76947 2.6089172 26.089233c1.0870361 7.319763 0.7248535 13.11853 3.913391 17.829407c3.1885376 4.7108154 12.029297 9.638672 15.217834 10.435669c3.1885376 0.7970581 3.4785767 -3.9864502 3.913391 -5.6535645z" fill-rule="evenodd"/><path stroke="#000000" stroke-width="1.0" stroke-linejoin="round" stroke-linecap="butt" d="m285.88135 562.6536c0.43481445 -1.6670532 2.9711304 3.7677612 -1.3044739 -4.34906c-4.2755737 -8.116821 -20.725708 -41.307983 -24.34906 -44.351685c-3.6233826 -3.0437622 1.5218506 18.76947 2.6089172 26.089233c1.0870361 7.319763 0.7248535 13.11853 3.913391 17.829407c3.1885376 4.7108154 12.029297 9.638672 15.217834 10.435669c3.1885376 0.7970581 3.4785767 -3.9864502 3.913391 -5.6535645z" fill-rule="evenodd"/><path fill="#000000" d="m274.14297 524.1105c1.3044434 -0.65270996 -0.94052124 -8.262024 -3.0419922 -20.002655c-2.1015015 -11.74057 -7.2476196 -40.729645 -9.566956 -50.44095c-2.319336 -9.711273 -3.4794312 -3.3337708 -4.34906 -7.8267517c-0.8696594 -4.4930115 0.5083008 -19.203857 -0.8687744 -19.131226c-1.3770752 0.07260132 -6.4514465 11.740143 -7.3937073 19.566925c-0.9422455 7.8267517 0.50787354 19.421692 1.7401581 27.393707c1.2322845 7.971985 3.9864502 16.017487 5.653549 20.438293c1.6671143 4.4208374 4.2042847 3.4050903 4.3490906 6.0866394c0.14477539 2.6815186 -3.9151611 8.697723 -3.4803162 10.0026245c0.43481445 1.3049011 3.262909 -4.4921265 6.0892334 -2.1732483c2.8263245 2.3189087 9.564301 16.739288 10.868774 16.08664z" fill-rule="evenodd"/><path stroke="#000000" stroke-width="1.0" stroke-linejoin="round" stroke-linecap="butt" d="m274.14297 524.1105c1.3044434 -0.65270996 -0.94052124 -8.262024 -3.0419922 -20.002655c-2.1015015 -11.74057 -7.2476196 -40.729645 -9.566956 -50.44095c-2.319336 -9.711273 -3.4794312 -3.3337708 -4.34906 -7.8267517c-0.8696594 -4.4930115 0.5083008 -19.203857 -0.8687744 -19.131226c-1.3770752 0.07260132 -6.4514465 11.740143 -7.3937073 19.566925c-0.9422455 7.8267517 0.50787354 19.421692 1.7401581 27.393707c1.2322845 7.971985 3.9864502 16.017487 5.653549 20.438293c1.6671143 4.4208374 4.2042847 3.4050903 4.3490906 6.0866394c0.14477539 2.6815186 -3.9151611 8.697723 -3.4803162 10.0026245c0.43481445 1.3049011 3.262909 -4.4921265 6.0892334 -2.1732483c2.8263245 2.3189087 9.564301 16.739288 10.868774 16.08664z" fill-rule="evenodd"/><path fill="#000000" d="m271.96982 389.7874c1.0148621 1.9501038 -4.4199524 5.79657 -2.1732178 16.522308c2.246704 10.725708 12.030182 37.54068 15.653534 47.832c3.623352 10.291351 5.434387 8.408142 6.086609 13.916016c0.6522217 5.5078735 -1.3035889 18.98645 -2.1732178 19.131226c-0.8696594 0.14480591 -0.942688 -10.290466 -3.0446167 -18.262451c-2.1019287 -7.9720154 -6.958008 -21.452759 -9.566925 -29.56955c-2.6089478 -8.116821 -3.6229248 -15.145233 -6.0866394 -19.131256c-2.463684 -3.9859924 -5.6517944 -2.9728699 -8.695526 -4.7847595c-3.0437317 -1.8118896 -9.929138 -4.7165527 -9.566925 -6.086609c0.36219788 -1.3700867 9.856079 0.32369995 11.740143 -2.1338806c1.8840942 -2.45755 -1.7401428 -9.706024 -0.43569946 -12.611542c1.3044739 -2.9055176 7.2476196 -6.771637 8.262482 -4.8215027z" fill-rule="evenodd"/><path stroke="#000000" stroke-width="1.0" stroke-linejoin="round" stroke-linecap="butt" d="m271.96982 389.7874c1.0148621 1.9501038 -4.4199524 5.79657 -2.1732178 16.522308c2.246704 10.725708 12.030182 37.54068 15.653534 47.832c3.623352 10.291351 5.434387 8.408142 6.086609 13.916016c0.6522217 5.5078735 -1.3035889 18.98645 -2.1732178 19.131226c-0.8696594 0.14480591 -0.942688 -10.290466 -3.0446167 -18.262451c-2.1019287 -7.9720154 -6.958008 -21.452759 -9.566925 -29.56955c-2.6089478 -8.116821 -3.6229248 -15.145233 -6.0866394 -19.131256c-2.463684 -3.9859924 -5.6517944 -2.9728699 -8.695526 -4.7847595c-3.0437317 -1.8118896 -9.929138 -4.7165527 -9.566925 -6.086609c0.36219788 -1.3700867 9.856079 0.32369995 11.740143 -2.1338806c1.8840942 -2.45755 -1.7401428 -9.706024 -0.43569946 -12.611542c1.3044739 -2.9055176 7.2476196 -6.771637 8.262482 -4.8215027z" fill-rule="evenodd"/><path fill="#000000" d="m309.79724 708.6786c0.5800476 1.5944824 7.3219604 -9.349548 11.742798 -12.175842c4.420807 -2.826355 10.071716 -4.347351 14.782135 -4.7821655c4.7104187 -0.43481445 13.480316 4.419922 13.480316 2.1732178c0 -2.246704 -8.18985 -14.493835 -13.480316 -15.653503c-5.2904663 -1.159668 -13.841644 3.6224365 -18.262451 8.695496c-4.4208374 5.073059 -8.842529 20.148315 -8.262482 21.742798z" fill-rule="evenodd"/><path stroke="#000000" stroke-width="1.0" stroke-linejoin="round" stroke-linecap="butt" d="m309.79724 708.6786c0.5800476 1.5944824 7.3219604 -9.349548 11.742798 -12.175842c4.420807 -2.826355 10.071716 -4.347351 14.782135 -4.7821655c4.7104187 -0.43481445 13.480316 4.419922 13.480316 2.1732178c0 -2.246704 -8.18985 -14.493835 -13.480316 -15.653503c-5.2904663 -1.159668 -13.841644 3.6224365 -18.262451 8.695496c-4.4208374 5.073059 -8.842529 20.148315 -8.262482 21.742798z" fill-rule="evenodd"/><path fill="#000000" d="m347.1951 702.1577c-1.7392883 3.7685547 3.9855652 13.624634 5.2178345 14.34906c1.2322998 0.72442627 0.43658447 -8.480774 2.1758728 -10.0026245c1.7392883 -1.5218506 6.665344 -1.0857544 8.259827 0.8713989c1.5945129 1.9571533 -0.21520996 8.624695 1.3070984 10.871399c1.5223083 2.246704 6.4501343 5.942688 7.826782 2.6088867c1.3766174 -3.3337402 -1.0162048 -13.914673 0.43304443 -22.611511c1.4492798 -8.696838 6.160553 -20.510498 8.262482 -29.56958c2.1019287 -9.059021 4.928711 -26.30664 4.3490906 -24.78479c-0.57962036 1.5219116 -4.8552246 24.639587 -7.826782 33.916016c-2.9715576 9.276489 -7.6106567 19.06128 -10.0026245 21.742798c-2.3919373 2.6815186 -1.0153198 -6.088379 -4.3490906 -5.6535645c-3.3337708 0.4348755 -13.914246 4.4938965 -15.653534 8.262512z" fill-rule="evenodd"/><path stroke="#000000" stroke-width="1.0" stroke-linejoin="round" stroke-linecap="butt" d="m347.1951 702.1577c-1.7392883 3.7685547 3.9855652 13.624634 5.2178345 14.34906c1.2322998 0.72442627 0.43658447 -8.480774 2.1758728 -10.0026245c1.7392883 -1.5218506 6.665344 -1.0857544 8.259827 0.8713989c1.5945129 1.9571533 -0.21520996 8.624695 1.3070984 10.871399c1.5223083 2.246704 6.4501343 5.942688 7.826782 2.6088867c1.3766174 -3.3337402 -1.0162048 -13.914673 0.43304443 -22.611511c1.4492798 -8.696838 6.160553 -20.510498 8.262482 -29.56958c2.1019287 -9.059021 4.928711 -26.30664 4.3490906 -24.78479c-0.57962036 1.5219116 -4.8552246 24.639587 -7.826782 33.916016c-2.9715576 9.276489 -7.6106567 19.06128 -10.0026245 21.742798c-2.3919373 2.6815186 -1.0153198 -6.088379 -4.3490906 -5.6535645c-3.3337708 0.4348755 -13.914246 4.4938965 -15.653534 8.262512z" fill-rule="evenodd"/><path fill="#000000" d="m294.62003 445.92004c2.8263245 -0.7970276 3.912506 -23.554657 7.391083 -36.527557c3.4785461 -12.97287 7.102356 -29.424316 13.480316 -41.309692c6.3779297 -11.8854065 25.801819 -28.842957 24.787384 -30.002625c-1.0144348 -1.159668 -24.13385 18.551605 -30.873993 23.044617c-6.7401733 4.492981 -8.479889 2.3910828 -9.566956 3.913391c-1.0870361 1.5223083 2.8272095 1.5240479 3.0446167 5.220459c0.21743774 3.6964111 1.2314148 9.638672 -1.7401428 16.958008c-2.9715576 7.319336 -15.002197 17.174103 -16.089233 26.958008c-1.0870667 9.783905 6.7406006 32.54242 9.566925 31.745392z" fill-rule="evenodd"/><path stroke="#000000" stroke-width="1.0" stroke-linejoin="round" stroke-linecap="butt" d="m294.62003 445.92004c2.8263245 -0.7970276 3.912506 -23.554657 7.391083 -36.527557c3.4785461 -12.97287 7.102356 -29.424316 13.480316 -41.309692c6.3779297 -11.8854065 25.801819 -28.842957 24.787384 -30.002625c-1.0144348 -1.159668 -24.13385 18.551605 -30.873993 23.044617c-6.7401733 4.492981 -8.479889 2.3910828 -9.566956 3.913391c-1.0870361 1.5223083 2.8272095 1.5240479 3.0446167 5.220459c0.21743774 3.6964111 1.2314148 9.638672 -1.7401428 16.958008c-2.9715576 7.319336 -15.002197 17.174103 -16.089233 26.958008c-1.0870667 9.783905 6.7406006 32.54242 9.566925 31.745392z" fill-rule="evenodd"/><path fill="#000000" d="m465.9449 612.77704c-0.36221313 -0.14477539 1.3779602 -6.956238 1.7401428 -10.0c0.36221313 -3.0437012 -0.72613525 -5.0012817 0.43307495 -8.262451c1.1592407 -3.2611694 2.3189087 -7.463684 6.5223083 -11.304443c4.20343 -3.8407593 11.958008 -7.7541504 18.698181 -11.740173c6.740143 -3.985962 14.423004 -8.624634 21.742767 -12.175842c7.319763 -3.5512085 16.015747 -7.9715576 22.175842 -9.131226c6.160095 -1.159668 7.755066 2.1732178 14.78479 2.1732178c7.029724 0 24.132568 -2.7528687 27.393677 -2.1732178c3.2611694 0.57958984 -2.826294 4.563843 -7.826721 5.65094c-5.0004883 1.0870361 -14.349121 0.58135986 -22.175903 0.8713379c-7.826721 0.29003906 -15.943115 -2.0301514 -24.784729 0.8687744c-8.841675 2.8989868 -19.133453 10.2196045 -28.265106 16.524963c-9.131683 6.305298 -22.104126 16.379272 -26.524933 21.307068c-4.4208374 4.9278564 0.6522217 5.361328 0 8.259827c-0.6522522 2.8985596 -3.551178 9.276062 -3.913391 9.131226z" fill-rule="evenodd"/><path stroke="#000000" stroke-width="1.0" stroke-linejoin="round" stroke-linecap="butt" d="m465.9449 612.77704c-0.36221313 -0.14477539 1.3779602 -6.956238 1.7401428 -10.0c0.36221313 -3.0437012 -0.72613525 -5.0012817 0.43307495 -8.262451c1.1592407 -3.2611694 2.3189087 -7.463684 6.5223083 -11.304443c4.20343 -3.8407593 11.958008 -7.7541504 18.698181 -11.740173c6.740143 -3.985962 14.423004 -8.624634 21.742767 -12.175842c7.319763 -3.5512085 16.015747 -7.9715576 22.175842 -9.131226c6.160095 -1.159668 7.755066 2.1732178 14.78479 2.1732178c7.029724 0 24.132568 -2.7528687 27.393677 -2.1732178c3.2611694 0.57958984 -2.826294 4.563843 -7.826721 5.65094c-5.0004883 1.0870361 -14.349121 0.58135986 -22.175903 0.8713379c-7.826721 0.29003906 -15.943115 -2.0301514 -24.784729 0.8687744c-8.841675 2.8989868 -19.133453 10.2196045 -28.265106 16.524963c-9.131683 6.305298 -22.104126 16.379272 -26.524933 21.307068c-4.4208374 4.9278564 0.6522217 5.361328 0 8.259827c-0.6522522 2.8985596 -3.551178 9.276062 -3.913391 9.131226z" fill-rule="evenodd"/><path fill="#000000" d="m474.64062 643.4535c2.1019287 -2.1744995 -4.2746887 -13.625977 -7.3910522 -17.829346c-3.1163635 -4.20343 -5.00177 -6.8114624 -11.307098 -7.3911133c-6.3053284 -0.57958984 -24.930878 1.5944824 -26.524933 3.913391c-1.5940552 2.3189087 12.394562 10.217407 16.960632 10.0c4.56604 -0.21740723 9.0590515 -12.391968 10.435699 -11.304443c1.376648 1.0874634 -5.147003 14.060791 -2.1758728 17.829407c2.9711304 3.7685547 17.900726 6.956665 20.002625 4.7821045z" fill-rule="evenodd"/><path stroke="#000000" stroke-width="1.0" stroke-linejoin="round" stroke-linecap="butt" d="m474.64062 643.4535c2.1019287 -2.1744995 -4.2746887 -13.625977 -7.3910522 -17.829346c-3.1163635 -4.20343 -5.00177 -6.8114624 -11.307098 -7.3911133c-6.3053284 -0.57958984 -24.930878 1.5944824 -26.524933 3.913391c-1.5940552 2.3189087 12.394562 10.217407 16.960632 10.0c4.56604 -0.21740723 9.0590515 -12.391968 10.435699 -11.304443c1.376648 1.0874634 -5.147003 14.060791 -2.1758728 17.829407c2.9711304 3.7685547 17.900726 6.956665 20.002625 4.7821045z" fill-rule="evenodd"/><path fill="#000000" d="m449.42105 648.6716c-2.39151 -1.0148315 19.640839 7.1745605 26.960632 9.131226c7.319763 1.9567261 16.595795 4.1307983 16.958008 2.6089478c0.36218262 -1.5218506 -19.133423 -10.797913 -14.78479 -11.740173c4.348633 -0.94226074 32.324585 3.9851685 40.876617 6.086609c8.552063 2.1015015 7.1745605 6.3049316 10.43573 6.522339c3.2611694 0.21740723 12.030151 -1.7393188 9.131226 -5.2178345c-2.8989258 -3.4785767 -28.916443 -14.059509 -26.524963 -15.653564c2.3915405 -1.5940552 29.35083 4.1325684 40.874023 6.0892334c11.523193 1.9567261 24.569153 5.723572 28.265137 5.65094c3.6959229 -0.072631836 -7.683777 -4.4925537 -6.0892944 -6.086609c1.5945435 -1.5940552 8.698608 -1.5932007 15.656189 -3.4777222c6.9575806 -1.8845215 21.450989 -9.205994 26.089233 -7.8294067c4.6382446 1.376648 2.0302124 8.044617 1.7401733 16.089233c-0.29003906 8.044678 -0.21875 27.177612 -3.4803467 32.178528c-3.2615356 5.0008545 -12.248413 -0.43395996 -16.089233 -2.1732788c-3.8407593 -1.7392578 -4.998657 -7.8997803 -6.9553833 -8.262451c-1.956665 -0.36260986 -5.36438 3.187683 -4.784729 6.086609c0.57958984 2.8989868 4.7838745 8.915161 8.262451 11.307129c3.4785767 2.3919067 11.884094 -0.071777344 12.608887 3.0446167c0.7248535 3.116333 -7.5354004 15.363953 -8.259827 15.653503c-0.72436523 0.28961182 5.0004272 -11.234436 3.913391 -13.916016c-1.0870361 -2.6815186 -4.782593 0.5805054 -10.435669 -2.1732178c-5.653137 -2.7537231 -18.409485 -9.855652 -23.482971 -14.34906c-5.0734863 -4.493469 -3.1172485 -11.01709 -6.958008 -12.611572c-3.8407593 -1.5944824 -9.202087 3.262024 -16.086609 3.0446167c-6.8845215 -0.21740723 -15.798767 -3.552063 -25.220459 -4.34906c-9.421692 -0.7970581 -19.206482 2.1758423 -31.309723 -0.43304443c-12.103241 -2.6089478 -38.918182 -14.205627 -41.309692 -15.22052z" fill-rule="evenodd"/><path stroke="#000000" stroke-width="1.0" stroke-linejoin="round" stroke-linecap="butt" d="m449.42105 648.6716c-2.39151 -1.0148315 19.640839 7.1745605 26.960632 9.131226c7.319763 1.9567261 16.595795 4.1307983 16.958008 2.6089478c0.36218262 -1.5218506 -19.133423 -10.797913 -14.78479 -11.740173c4.348633 -0.94226074 32.324585 3.9851685 40.876617 6.086609c8.552063 2.1015015 7.1745605 6.3049316 10.43573 6.522339c3.2611694 0.21740723 12.030151 -1.7393188 9.131226 -5.2178345c-2.8989258 -3.4785767 -28.916443 -14.059509 -26.524963 -15.653564c2.3915405 -1.5940552 29.35083 4.1325684 40.874023 6.0892334c11.523193 1.9567261 24.569153 5.723572 28.265137 5.65094c3.6959229 -0.072631836 -7.683777 -4.4925537 -6.0892944 -6.086609c1.5945435 -1.5940552 8.698608 -1.5932007 15.656189 -3.4777222c6.9575806 -1.8845215 21.450989 -9.205994 26.089233 -7.8294067c4.6382446 1.376648 2.0302124 8.044617 1.7401733 16.089233c-0.29003906 8.044678 -0.21875 27.177612 -3.4803467 32.178528c-3.2615356 5.0008545 -12.248413 -0.43395996 -16.089233 -2.1732788c-3.8407593 -1.7392578 -4.998657 -7.8997803 -6.9553833 -8.262451c-1.956665 -0.36260986 -5.36438 3.187683 -4.784729 6.086609c0.57958984 2.8989868 4.7838745 8.915161 8.262451 11.307129c3.4785767 2.3919067 11.884094 -0.071777344 12.608887 3.0446167c0.7248535 3.116333 -7.5354004 15.363953 -8.259827 15.653503c-0.72436523 0.28961182 5.0004272 -11.234436 3.913391 -13.916016c-1.0870361 -2.6815186 -4.782593 0.5805054 -10.435669 -2.1732178c-5.653137 -2.7537231 -18.409485 -9.855652 -23.482971 -14.34906c-5.0734863 -4.493469 -3.1172485 -11.01709 -6.958008 -12.611572c-3.8407593 -1.5944824 -9.202087 3.262024 -16.086609 3.0446167c-6.8845215 -0.21740723 -15.798767 -3.552063 -25.220459 -4.34906c-9.421692 -0.7970581 -19.206482 2.1758423 -31.309723 -0.43304443c-12.103241 -2.6089478 -38.918182 -14.205627 -41.309692 -15.22052z" fill-rule="evenodd"/><path fill="#000000" d="m508.16373 566.0523c6.0152893 -1.8114624 5.799225 4.494751 8.698151 4.78479c2.8989258 0.29003906 7.463684 -3.6242676 8.695557 -3.0446167c1.2318115 0.57958984 -5.2178955 5.942688 -1.3045044 6.522278c3.913391 0.5796509 13.841248 -1.232666 24.78479 -3.0446167c10.9436035 -1.8118896 29.280823 -5.2178345 40.876648 -7.826721c11.595825 -2.6089478 23.84253 -9.856079 28.698181 -7.826782c4.855652 2.0292969 7.1032104 13.407654 0.43566895 20.002625c-6.6675415 6.5949097 -32.468933 14.711243 -40.440918 19.566895c-7.972046 4.855652 -3.767273 8.914734 -7.3911133 9.566956c-3.6237793 0.6522217 -13.047241 -6.7406006 -14.351685 -5.6535645c-1.3044434 1.0870361 9.206055 10.146545 6.5249634 12.175842c-2.6811523 2.029358 -15.871399 1.0144653 -22.611572 0c-6.7401733 -1.0144043 -14.56781 -0.8687744 -17.829407 -6.086609c-3.2615967 -5.2178345 0.36132812 -21.524048 -1.7401733 -25.220459c-2.1014404 -3.6964111 -6.3031006 3.6220703 -10.868744 3.0419922c-4.565613 -0.5800171 -13.263336 -7.029724 -16.524933 -6.522278c-3.2615967 0.50738525 -5.798767 6.9575195 -3.0446167 9.566895c2.7541504 2.609375 15.36615 6.161438 19.56955 6.0892334c4.2033997 -0.072143555 3.839447 -7.826782 5.6509094 -6.522278c1.8114624 1.3044434 2.2462769 9.348633 5.2178345 14.34906c2.9715576 5.0004272 15.147888 13.406799 12.611572 15.653564c-2.536316 2.246704 -20.944458 -3.1154785 -27.829407 -2.1732178c-6.8849487 0.9421997 -11.595795 5.072998 -13.480316 7.826721c-1.884491 2.7537231 4.4199524 8.623352 2.1732483 8.695557c-2.2467346 0.07220459 -11.812775 -4.7838745 -15.653564 -8.262451c-3.8407593 -3.4785767 -7.6810913 -5.9414062 -7.3910522 -12.608948c0.29000854 -6.6675415 3.0437317 -20.221313 9.131226 -27.396301c6.087494 -7.174988 21.378387 -13.842102 27.393707 -15.653564z" fill-rule="evenodd"/><path stroke="#000000" stroke-width="1.0" stroke-linejoin="round" stroke-linecap="butt" d="m508.16373 566.0523c6.0152893 -1.8114624 5.799225 4.494751 8.698151 4.78479c2.8989258 0.29003906 7.463684 -3.6242676 8.695557 -3.0446167c1.2318115 0.57958984 -5.2178955 5.942688 -1.3045044 6.522278c3.913391 0.5796509 13.841248 -1.232666 24.78479 -3.0446167c10.9436035 -1.8118896 29.280823 -5.2178345 40.876648 -7.826721c11.595825 -2.6089478 23.84253 -9.856079 28.698181 -7.826782c4.855652 2.0292969 7.1032104 13.407654 0.43566895 20.002625c-6.6675415 6.5949097 -32.468933 14.711243 -40.440918 19.566895c-7.972046 4.855652 -3.767273 8.914734 -7.3911133 9.566956c-3.6237793 0.6522217 -13.047241 -6.7406006 -14.351685 -5.6535645c-1.3044434 1.0870361 9.206055 10.146545 6.5249634 12.175842c-2.6811523 2.029358 -15.871399 1.0144653 -22.611572 0c-6.7401733 -1.0144043 -14.56781 -0.8687744 -17.829407 -6.086609c-3.2615967 -5.2178345 0.36132812 -21.524048 -1.7401733 -25.220459c-2.1014404 -3.6964111 -6.3031006 3.6220703 -10.868744 3.0419922c-4.565613 -0.5800171 -13.263336 -7.029724 -16.524933 -6.522278c-3.2615967 0.50738525 -5.798767 6.9575195 -3.0446167 9.566895c2.7541504 2.609375 15.36615 6.161438 19.56955 6.0892334c4.2033997 -0.072143555 3.839447 -7.826782 5.6509094 -6.522278c1.8114624 1.3044434 2.2462769 9.348633 5.2178345 14.34906c2.9715576 5.0004272 15.147888 13.406799 12.611572 15.653564c-2.536316 2.246704 -20.944458 -3.1154785 -27.829407 -2.1732178c-6.8849487 0.9421997 -11.595795 5.072998 -13.480316 7.826721c-1.884491 2.7537231 4.4199524 8.623352 2.1732483 8.695557c-2.2467346 0.07220459 -11.812775 -4.7838745 -15.653564 -8.262451c-3.8407593 -3.4785767 -7.6810913 -5.9414062 -7.3910522 -12.608948c0.29000854 -6.6675415 3.0437317 -20.221313 9.131226 -27.396301c6.087494 -7.174988 21.378387 -13.842102 27.393707 -15.653564z" fill-rule="evenodd"/><path fill="#000000" d="m544.6907 555.65497c3.1885376 -6.2523804 37.104553 -27.447021 49.56958 -35.656128c12.464966 -8.209106 21.089233 -15.212616 25.220459 -13.59845c4.1312256 1.6141968 4.9295654 18.315857 -0.43310547 23.283447c-5.36261 4.9676514 -22.031494 2.8985596 -31.742737 6.522339c-9.711304 3.6237793 -28.699036 13.553345 -26.524963 15.220459c2.1741333 1.6671143 29.64087 -4.78302 39.56958 -5.2178345c9.92865 -0.43481445 21.45227 2.0292969 20.002625 2.6089478c-1.449707 0.57958984 -21.163635 -0.5805054 -28.700806 0.8687134c-7.5371704 1.4492798 -8.695557 6.8320312 -16.522339 7.826782c-7.826721 0.994751 -33.62683 4.394165 -30.438293 -1.8582764z" fill-rule="evenodd"/><path stroke="#000000" stroke-width="1.0" stroke-linejoin="round" stroke-linecap="butt" d="m544.6907 555.65497c3.1885376 -6.2523804 37.104553 -27.447021 49.56958 -35.656128c12.464966 -8.209106 21.089233 -15.212616 25.220459 -13.59845c4.1312256 1.6141968 4.9295654 18.315857 -0.43310547 23.283447c-5.36261 4.9676514 -22.031494 2.8985596 -31.742737 6.522339c-9.711304 3.6237793 -28.699036 13.553345 -26.524963 15.220459c2.1741333 1.6671143 29.64087 -4.78302 39.56958 -5.2178345c9.92865 -0.43481445 21.45227 2.0292969 20.002625 2.6089478c-1.449707 0.57958984 -21.163635 -0.5805054 -28.700806 0.8687134c-7.5371704 1.4492798 -8.695557 6.8320312 -16.522339 7.826782c-7.826721 0.994751 -33.62683 4.394165 -30.438293 -1.8582764z" fill-rule="evenodd"/><path fill="#000000" d="m617.7438 449.7147c-4.78302 -1.7392883 -18.190308 6.0896606 -26.524963 11.742767c-8.334595 5.6531067 -9.278198 23.62555 -23.48291 22.175873c-14.204712 -1.449707 -58.484253 -30.293976 -61.745422 -30.874023c-3.261139 -0.5800476 32.612 21.523193 42.178467 27.393707c9.566528 5.870514 15.075684 6.8871155 15.22052 7.829376c0.14477539 0.94226074 -9.785706 -2.0306091 -14.351746 -2.1758423c-4.56604 -0.14523315 -6.3048706 4.1307983 -13.044617 1.3044739c-6.739685 -2.826355 -27.973755 -19.712189 -27.393707 -18.262482c0.5800781 1.449707 24.134308 23.119415 30.874054 26.960632c6.739685 3.841217 4.4190674 -3.695984 9.56427 -3.913391c5.1452637 -0.21740723 13.697327 5.000885 21.307068 2.6089172c7.6098022 -2.3919373 16.089722 -13.192017 24.351746 -16.960632c8.262024 -3.7685852 21.379272 -1.0126648 25.220459 -5.6509094c3.8411865 -4.6382446 2.6098022 -20.439178 -2.1732178 -22.178467z" fill-rule="evenodd"/><path stroke="#000000" stroke-width="1.0" stroke-linejoin="round" stroke-linecap="butt" d="m617.7438 449.7147c-4.78302 -1.7392883 -18.190308 6.0896606 -26.524963 11.742767c-8.334595 5.6531067 -9.278198 23.62555 -23.48291 22.175873c-14.204712 -1.449707 -58.484253 -30.293976 -61.745422 -30.874023c-3.261139 -0.5800476 32.612 21.523193 42.178467 27.393707c9.566528 5.870514 15.075684 6.8871155 15.22052 7.829376c0.14477539 0.94226074 -9.785706 -2.0306091 -14.351746 -2.1758423c-4.56604 -0.14523315 -6.3048706 4.1307983 -13.044617 1.3044739c-6.739685 -2.826355 -27.973755 -19.712189 -27.393707 -18.262482c0.5800781 1.449707 24.134308 23.119415 30.874054 26.960632c6.739685 3.841217 4.4190674 -3.695984 9.56427 -3.913391c5.1452637 -0.21740723 13.697327 5.000885 21.307068 2.6089172c7.6098022 -2.3919373 16.089722 -13.192017 24.351746 -16.960632c8.262024 -3.7685852 21.379272 -1.0126648 25.220459 -5.6509094c3.8411865 -4.6382446 2.6098022 -20.439178 -2.1732178 -22.178467z" fill-rule="evenodd"/><path fill="#000000" d="m413.8029 378.95563c2.1019287 2.8984985 43.775146 33.335968 50.007874 36.524933c6.2326965 3.1889648 -4.2769165 -11.303589 -12.611572 -17.391083c-8.334625 -6.087494 -39.49823 -22.032349 -37.3963 -19.13385z" fill-rule="evenodd"/><path stroke="#000000" stroke-width="1.0" stroke-linejoin="round" stroke-linecap="butt" d="m413.8029 378.95563c2.1019287 2.8984985 43.775146 33.335968 50.007874 36.524933c6.2326965 3.1889648 -4.2769165 -11.303589 -12.611572 -17.391083c-8.334625 -6.087494 -39.49823 -22.032349 -37.3963 -19.13385z" fill-rule="evenodd"/><path fill="#000000" d="m442.93777 380.25925c-0.43481445 3.2611694 15.0035095 16.450562 24.787415 22.175873c9.7838745 5.725281 22.97287 12.3932495 33.915985 12.175842c10.943115 -0.21740723 24.423035 -9.711731 31.742798 -13.480316c7.319763 -3.7685852 16.451904 -8.044189 12.175842 -9.131226c-4.276001 -1.0870667 -28.048096 2.2462769 -37.832 2.6089172c-9.783905 0.36264038 -14.63913 1.5236206 -20.871399 -0.43307495c-6.2323 -1.9566956 -9.202545 -8.987762 -16.522308 -11.307098c-7.3197937 -2.3193054 -26.961517 -5.870056 -27.396332 -2.6089172z" fill-rule="evenodd"/><path stroke="#000000" stroke-width="1.0" stroke-linejoin="round" stroke-linecap="butt" d="m442.93777 380.25925c-0.43481445 3.2611694 15.0035095 16.450562 24.787415 22.175873c9.7838745 5.725281 22.97287 12.3932495 33.915985 12.175842c10.943115 -0.21740723 24.423035 -9.711731 31.742798 -13.480316c7.319763 -3.7685852 16.451904 -8.044189 12.175842 -9.131226c-4.276001 -1.0870667 -28.048096 2.2462769 -37.832 2.6089172c-9.783905 0.36264038 -14.63913 1.5236206 -20.871399 -0.43307495c-6.2323 -1.9566956 -9.202545 -8.987762 -16.522308 -11.307098c-7.3197937 -2.3193054 -26.961517 -5.870056 -27.396332 -2.6089172z" fill-rule="evenodd"/><path fill="#000000" d="m332.25186 308.94684c-0.7970276 -0.29000854 -0.7230835 9.058624 -1.7375183 13.044617c-1.0144348 3.986023 -7.8998413 10.798798 -4.3490906 10.871399c3.5507507 0.072631836 22.319763 -7.6815186 25.653534 -10.435699c3.3337708 -2.7541504 -2.8971863 -6.3066406 -5.6509094 -6.0892334c-2.7537231 0.21740723 -8.552063 8.625549 -10.871399 7.3937073c-2.319336 -1.231842 -2.247589 -14.494751 -3.0446167 -14.78479z" fill-rule="evenodd"/><path stroke="#000000" stroke-width="1.0" stroke-linejoin="round" stroke-linecap="butt" d="m332.25186 308.94684c-0.7970276 -0.29000854 -0.7230835 9.058624 -1.7375183 13.044617c-1.0144348 3.986023 -7.8998413 10.798798 -4.3490906 10.871399c3.5507507 0.072631836 22.319763 -7.6815186 25.653534 -10.435699c3.3337708 -2.7541504 -2.8971863 -6.3066406 -5.6509094 -6.0892334c-2.7537231 0.21740723 -8.552063 8.625549 -10.871399 7.3937073c-2.319336 -1.231842 -2.247589 -14.494751 -3.0446167 -14.78479z" fill-rule="evenodd"/><path fill="#000000" d="m255.28522 289.97134c1.7392883 2.3919678 10.000885 7.321533 10.435699 14.351715c0.43481445 7.030182 -6.087494 18.118103 -7.826782 27.829376c-1.7392883 9.711304 -6.594925 18.770355 -2.6089172 30.438324c3.9859924 11.667999 21.669281 35.148743 26.524933 39.56955c4.855652 4.4208374 3.623352 -8.333771 2.6089172 -13.044617c-1.0144348 -4.710846 -8.985565 -7.6832886 -8.695526 -15.220459c0.29000854 -7.5371704 7.247162 -20.58136 10.435699 -30.002625c3.1885376 -9.421265 6.7388306 -19.132538 8.695526 -26.524933c1.9566956 -7.392395 -0.65179443 -16.3797 3.0446167 -17.829407c3.6964111 -1.4496765 15.872711 8.696411 19.13385 9.131256c3.2611694 0.43481445 -2.1032104 -6.59494 0.43307495 -6.522339c2.536316 0.072631836 7.9720154 3.624237 14.78479 6.958008c6.8127747 3.3337708 20.003937 11.01532 26.091858 13.044617c6.087921 2.0293274 6.2322693 -1.013977 10.435699 -0.8687439c4.2033997 0.14523315 12.3932495 2.392395 14.7847595 1.7401428c2.3915405 -0.6522217 1.5936279 -3.6964111 -0.43566895 -5.653534c-2.0293274 -1.9571228 -8.5512085 -5.5818176 -11.740173 -6.0892334c-3.1889648 -0.5074463 -3.045044 3.5516052 -7.3937073 3.0446167c-4.348633 -0.50701904 -13.118103 -4.1299133 -18.69815 -6.086609c-5.5800476 -1.9566956 -14.927399 -4.4938965 -14.782166 -5.6535645c0.14523315 -1.159668 8.479004 -2.7537231 15.653564 -1.3044434c7.17453 1.4492493 18.334625 6.304016 27.393677 10.0c9.059082 3.6959534 18.263794 8.986877 26.960632 12.175842c8.696869 3.1889648 23.843414 8.262482 25.22049 6.958008c1.3770752 -1.3044739 -10.435272 -9.784332 -16.958008 -14.78479c-6.5227356 -5.0004272 -19.20691 -11.231842 -22.178467 -15.217834c-2.9715881 -3.9859924 5.0013123 -6.2340393 4.34906 -8.698151c-0.6522217 -2.4641418 -3.262024 -4.4199524 -8.262451 -6.0866394c-5.000458 -1.6666565 -16.159668 -3.1159058 -21.740173 -3.9133606c-5.580475 -0.79748535 -8.481171 1.1447754 -11.742767 -0.8713989c-3.2615967 -2.0162048 -6.7397156 -5.5135803 -7.826782 -11.225739c-1.0870361 -5.712158 -1.159668 -16.84076 1.3044739 -23.047226c2.4641113 -6.206482 11.016174 -9.2174225 13.480316 -14.191605c2.4641113 -4.9741974 2.4641113 -10.870514 1.3044434 -15.653549c-1.159668 -4.78302 -6.885376 -9.4077 -8.262451 -13.044617c-1.3770752 -3.636917 0.8696289 -4.7051544 0 -8.776901c-0.8696594 -4.071747 -4.3482056 -10.725723 -5.217865 -15.653549c-0.8696289 -4.9278107 0.6522522 -9.637787 0 -13.913376c-0.6522217 -4.275589 -2.39151 -11.6675415 -3.913391 -11.740158c-1.5218506 -0.07261658 -4.493408 7.1736603 -5.2178345 11.304459c-0.72439575 4.1307983 5.0747986 11.01619 0.8713989 13.480316c-4.20343 2.4641266 -18.482056 2.898941 -26.091858 1.3044586c-7.6098022 -1.5944824 -18.84253 -11.523621 -19.566956 -10.871384c-0.72439575 0.6522217 8.987762 10.58136 15.2204895 14.784775c6.232727 4.203415 18.190277 7.1019135 22.175842 10.435684c3.9855652 3.3337708 4.20166 9.204727 1.7375488 9.56694c-2.4641418 0.36219788 -16.304901 -8.045929 -16.522308 -7.3937073c-0.21740723 0.65223694 12.536285 7.6832886 15.217834 11.307083c2.681549 3.6238098 2.6106873 10.725723 0.8713989 10.435699c-1.7392883 -0.2900238 -11.089691 -13.190292 -11.307098 -12.175858c-0.21740723 1.0144348 12.466766 19.276917 10.0026245 18.262466c-2.4641113 -1.0144348 -23.48294 -25.653976 -24.787384 -24.349075c-1.3044739 1.3049011 12.249786 24.134293 16.960632 32.178482c4.710846 8.044174 13.478546 16.884079 11.304443 16.086609c-2.1741028 -0.79745483 -11.6666565 -13.841644 -24.34906 -20.871384c-12.682434 -7.0297546 -50.44052 -22.539383 -51.745422 -21.307098c-1.3049011 1.2322845 34.71216 20.583557 43.916016 28.70079c9.203857 8.117233 7.75589 12.261597 11.307068 20.002625c3.5512085 7.741028 12.681549 29.790894 10.0 26.443573c-2.6815186 -3.3473206 -23.262878 -43.411636 -26.089233 -46.527557c-2.8263245 -3.115921 8.116821 20.36702 9.131256 27.832031c1.0144348 7.4649963 -1.5227661 18.842499 -3.0446472 16.958008c-1.5218506 -1.8845215 -5.4343567 -29.714355 -6.086609 -28.265106c-0.6522217 1.4492493 3.7677307 39.062103 2.1732483 36.960632c-1.5945129 -2.1015015 -8.479004 -39.423447 -11.740173 -49.56955c-3.261139 -10.146118 -9.711273 -20.583557 -7.8267517 -11.307098c1.884491 9.276474 21.307953 59.790894 19.13385 66.96588c-2.1741028 7.174988 -27.39502 -20.871826 -32.178497 -23.916016c-4.7834473 -3.044159 2.8981018 4.7091064 3.4776917 5.65094" fill-rule="evenodd"/><path stroke="#000000" stroke-width="1.0" stroke-linejoin="round" stroke-linecap="butt" d="m255.28522 289.97134c1.7392883 2.3919678 10.000885 7.321533 10.435699 14.351715c0.43481445 7.030182 -6.087494 18.118103 -7.826782 27.829376c-1.7392883 9.711304 -6.594925 18.770355 -2.6089172 30.438324c3.9859924 11.667999 21.669281 35.148743 26.524933 39.56955c4.855652 4.4208374 3.623352 -8.333771 2.6089172 -13.044617c-1.0144348 -4.710846 -8.985565 -7.6832886 -8.695526 -15.220459c0.29000854 -7.5371704 7.247162 -20.58136 10.435699 -30.002625c3.1885376 -9.421265 6.7388306 -19.132538 8.695526 -26.524933c1.9566956 -7.392395 -0.65179443 -16.3797 3.0446167 -17.829407c3.6964111 -1.4496765 15.872711 8.696411 19.13385 9.131256c3.2611694 0.43481445 -2.1032104 -6.59494 0.43307495 -6.522339c2.536316 0.072631836 7.9720154 3.624237 14.78479 6.958008c6.8127747 3.3337708 20.003937 11.01532 26.091858 13.044617c6.087921 2.0293274 6.2322693 -1.013977 10.435699 -0.8687439c4.2033997 0.14523315 12.3932495 2.392395 14.7847595 1.7401428c2.3915405 -0.6522217 1.5936279 -3.6964111 -0.43566895 -5.653534c-2.0293274 -1.9571228 -8.5512085 -5.5818176 -11.740173 -6.0892334c-3.1889648 -0.5074463 -3.045044 3.5516052 -7.3937073 3.0446167c-4.348633 -0.50701904 -13.118103 -4.1299133 -18.69815 -6.086609c-5.5800476 -1.9566956 -14.927399 -4.4938965 -14.782166 -5.6535645c0.14523315 -1.159668 8.479004 -2.7537231 15.653564 -1.3044434c7.17453 1.4492493 18.334625 6.304016 27.393677 10.0c9.059082 3.6959534 18.263794 8.986877 26.960632 12.175842c8.696869 3.1889648 23.843414 8.262482 25.22049 6.958008c1.3770752 -1.3044739 -10.435272 -9.784332 -16.958008 -14.78479c-6.5227356 -5.0004272 -19.20691 -11.231842 -22.178467 -15.217834c-2.9715881 -3.9859924 5.0013123 -6.2340393 4.34906 -8.698151c-0.6522217 -2.4641418 -3.262024 -4.4199524 -8.262451 -6.0866394c-5.000458 -1.6666565 -16.159668 -3.1159058 -21.740173 -3.9133606c-5.580475 -0.79748535 -8.481171 1.1447754 -11.742767 -0.8713989c-3.2615967 -2.0162048 -6.7397156 -5.5135803 -7.826782 -11.225739c-1.0870361 -5.712158 -1.159668 -16.84076 1.3044739 -23.047226c2.4641113 -6.206482 11.016174 -9.2174225 13.480316 -14.191605c2.4641113 -4.9741974 2.4641113 -10.870514 1.3044434 -15.653549c-1.159668 -4.78302 -6.885376 -9.4077 -8.262451 -13.044617c-1.3770752 -3.636917 0.8696289 -4.7051544 0 -8.776901c-0.8696594 -4.071747 -4.3482056 -10.725723 -5.217865 -15.653549c-0.8696289 -4.9278107 0.6522522 -9.637787 0 -13.913376c-0.6522217 -4.275589 -2.39151 -11.6675415 -3.913391 -11.740158c-1.5218506 -0.07261658 -4.493408 7.1736603 -5.2178345 11.304459c-0.72439575 4.1307983 5.0747986 11.01619 0.8713989 13.480316c-4.20343 2.4641266 -18.482056 2.898941 -26.091858 1.3044586c-7.6098022 -1.5944824 -18.84253 -11.523621 -19.566956 -10.871384c-0.72439575 0.6522217 8.987762 10.58136 15.2204895 14.784775c6.232727 4.203415 18.190277 7.1019135 22.175842 10.435684c3.9855652 3.3337708 4.20166 9.204727 1.7375488 9.56694c-2.4641418 0.36219788 -16.304901 -8.045929 -16.522308 -7.3937073c-0.21740723 0.65223694 12.536285 7.6832886 15.217834 11.307083c2.681549 3.6238098 2.6106873 10.725723 0.8713989 10.435699c-1.7392883 -0.2900238 -11.089691 -13.190292 -11.307098 -12.175858c-0.21740723 1.0144348 12.466766 19.276917 10.0026245 18.262466c-2.4641113 -1.0144348 -23.48294 -25.653976 -24.787384 -24.349075c-1.3044739 1.3049011 12.249786 24.134293 16.960632 32.178482c4.710846 8.044174 13.478546 16.884079 11.304443 16.086609c-2.1741028 -0.79745483 -11.6666565 -13.841644 -24.34906 -20.871384c-12.682434 -7.0297546 -50.44052 -22.539383 -51.745422 -21.307098c-1.3049011 1.2322845 34.71216 20.583557 43.916016 28.70079c9.203857 8.117233 7.75589 12.261597 11.307068 20.002625c3.5512085 7.741028 12.681549 29.790894 10.0 26.443573c-2.6815186 -3.3473206 -23.262878 -43.411636 -26.089233 -46.527557c-2.8263245 -3.115921 8.116821 20.36702 9.131256 27.832031c1.0144348 7.4649963 -1.5227661 18.842499 -3.0446472 16.958008c-1.5218506 -1.8845215 -5.4343567 -29.714355 -6.086609 -28.265106c-0.6522217 1.4492493 3.7677307 39.062103 2.1732483 36.960632c-1.5945129 -2.1015015 -8.479004 -39.423447 -11.740173 -49.56955c-3.261139 -10.146118 -9.711273 -20.583557 -7.8267517 -11.307098c1.884491 9.276474 21.307953 59.790894 19.13385 66.96588c-2.1741028 7.174988 -27.39502 -20.871826 -32.178497 -23.916016c-4.7834473 -3.044159 2.8981018 4.7091064 3.4776917 5.65094" fill-rule="evenodd"/><path fill="#000000" d="m265.2897 271.43304c-5.000458 -7.4055176 1.0861816 -12.177155 0.8687744 -19.56955c-0.21743774 -7.392395 -0.28915405 -19.059494 -2.1732483 -24.784775c-1.8840637 -5.725296 -6.8118896 -8.842087 -9.131226 -9.56694c-2.319336 -0.72483826 -5.9440155 0.7970276 -4.784775 5.2178497c1.1592255 4.420822 13.262039 20.872269 11.740158 21.307083c-1.5218811 0.4348297 -20.219162 -20.002625 -20.871399 -18.69815c-0.6522217 1.3044586 16.958008 24.785202 16.958008 26.524933c0 1.7397156 -15.508743 -16.666672 -16.958008 -16.086624c-1.4492493 0.58006287 6.667984 13.914261 8.262466 19.56694c1.5944977 5.652649 2.681549 10.14566 1.3044739 14.34906c-1.3770905 4.20343 -7.030197 9.421722 -9.56694 10.871399c-2.5367432 1.449707 -6.2331543 -0.2886963 -5.653534 -2.1732178c0.5796051 -1.8845215 7.826767 -6.1622925 9.131226 -9.13385c1.3044586 -2.9715881 -0.86964417 -6.2318726 -1.3044586 -8.695557c-0.43481445 -2.463684 0.2895813 -5.7243958 -1.3044586 -6.086609c-1.5940552 -0.36219788 -6.085739 3.4785767 -8.259842 3.913391c-2.1741028 0.43481445 -4.784775 0.14523315 -4.784775 -1.3044739c0 -1.4496918 4.5673523 -4.856949 4.784775 -7.393692c0.21740723 -2.5367432 -1.1609802 -5.8700867 -3.4803162 -7.826767c-2.319336 -1.9566956 -7.464569 -4.3482056 -10.435699 -3.913391c-2.9711304 0.43481445 -5.6517944 3.4059448 -7.391083 6.5223083c-1.7392731 3.1163635 -1.0153046 11.81366 -3.0446167 12.175842c-2.0293121 0.36221313 -5.5800476 -7.103668 -9.131226 -10.002609c-3.551178 -2.8989563 -10.219162 -4.347336 -12.175858 -7.391083c-1.9566956 -3.043747 1.5227509 -7.537613 0.43569946 -10.871384c-1.0870514 -3.3337708 -3.986435 -6.4234467 -6.958008 -9.131241c-2.9715729 -2.707779 -7.247589 -4.55249 -10.871399 -7.1154785c-3.6237946 -2.5629883 -9.856949 -3.9864502 -10.871384 -8.262466c-1.0144348 -4.2760315 4.4221344 -12.393265 4.784775 -17.393707c0.36264038 -5.0004425 -3.4785614 -8.985565 -2.6089172 -12.608917c0.86964417 -3.6233673 7.6819763 -5.8700867 7.826767 -9.131241c0.14479065 -3.2611542 -11.306213 -9.559494 -6.958008 -10.435699c4.3482056 -0.8761902 17.682861 -3.6894073 33.04724 5.178482c15.364395 8.867889 45.44182 37.76422 59.139114 48.02887c13.697296 10.264664 18.334198 5.7187195 23.044617 13.5590515c4.7104187 7.8403473 2.1741028 20.945328 5.2178345 33.48294c3.0437622 12.537628 16.015778 38.929565 13.044647 41.742798c-2.9711304 2.813202 -25.870972 -17.458008 -30.871399 -24.863525z" fill-rule="evenodd"/><path stroke="#000000" stroke-width="1.0" stroke-linejoin="round" stroke-linecap="butt" d="m265.2897 271.43304c-5.000458 -7.4055176 1.0861816 -12.177155 0.8687744 -19.56955c-0.21743774 -7.392395 -0.28915405 -19.059494 -2.1732483 -24.784775c-1.8840637 -5.725296 -6.8118896 -8.842087 -9.131226 -9.56694c-2.319336 -0.72483826 -5.9440155 0.7970276 -4.784775 5.2178497c1.1592255 4.420822 13.262039 20.872269 11.740158 21.307083c-1.5218811 0.4348297 -20.219162 -20.002625 -20.871399 -18.69815c-0.6522217 1.3044586 16.958008 24.785202 16.958008 26.524933c0 1.7397156 -15.508743 -16.666672 -16.958008 -16.086624c-1.4492493 0.58006287 6.667984 13.914261 8.262466 19.56694c1.5944977 5.652649 2.681549 10.14566 1.3044739 14.34906c-1.3770905 4.20343 -7.030197 9.421722 -9.56694 10.871399c-2.5367432 1.449707 -6.2331543 -0.2886963 -5.653534 -2.1732178c0.5796051 -1.8845215 7.826767 -6.1622925 9.131226 -9.13385c1.3044586 -2.9715881 -0.86964417 -6.2318726 -1.3044586 -8.695557c-0.43481445 -2.463684 0.2895813 -5.7243958 -1.3044586 -6.086609c-1.5940552 -0.36219788 -6.085739 3.4785767 -8.259842 3.913391c-2.1741028 0.43481445 -4.784775 0.14523315 -4.784775 -1.3044739c0 -1.4496918 4.5673523 -4.856949 4.784775 -7.393692c0.21740723 -2.5367432 -1.1609802 -5.8700867 -3.4803162 -7.826767c-2.319336 -1.9566956 -7.464569 -4.3482056 -10.435699 -3.913391c-2.9711304 0.43481445 -5.6517944 3.4059448 -7.391083 6.5223083c-1.7392731 3.1163635 -1.0153046 11.81366 -3.0446167 12.175842c-2.0293121 0.36221313 -5.5800476 -7.103668 -9.131226 -10.002609c-3.551178 -2.8989563 -10.219162 -4.347336 -12.175858 -7.391083c-1.9566956 -3.043747 1.5227509 -7.537613 0.43569946 -10.871384c-1.0870514 -3.3337708 -3.986435 -6.4234467 -6.958008 -9.131241c-2.9715729 -2.707779 -7.247589 -4.55249 -10.871399 -7.1154785c-3.6237946 -2.5629883 -9.856949 -3.9864502 -10.871384 -8.262466c-1.0144348 -4.2760315 4.4221344 -12.393265 4.784775 -17.393707c0.36264038 -5.0004425 -3.4785614 -8.985565 -2.6089172 -12.608917c0.86964417 -3.6233673 7.6819763 -5.8700867 7.826767 -9.131241c0.14479065 -3.2611542 -11.306213 -9.559494 -6.958008 -10.435699c4.3482056 -0.8761902 17.682861 -3.6894073 33.04724 5.178482c15.364395 8.867889 45.44182 37.76422 59.139114 48.02887c13.697296 10.264664 18.334198 5.7187195 23.044617 13.5590515c4.7104187 7.8403473 2.1741028 20.945328 5.2178345 33.48294c3.0437622 12.537628 16.015778 38.929565 13.044647 41.742798c-2.9711304 2.813202 -25.870972 -17.458008 -30.871399 -24.863525z" fill-rule="evenodd"/><path fill="#000000" d="m232.67444 282.97632c-1.159668 -5.942688 -3.4776917 -5.4370117 -4.7821655 -4.7847595c-1.3044586 0.6522217 -3.769455 6.886261 -3.0446167 8.698151c0.7248535 1.8118896 6.016632 -1.232727 7.3937073 2.1732178c1.3770752 3.4059448 0.5065613 6.666687 0.86875916 18.262482c0.36221313 11.595795 1.0144348 50.22528 1.3044586 51.312317c0.29003906 1.0870667 0.72572327 -32.17978 0.43569946 -44.79001c-0.2900238 -12.6102295 -1.0161896 -24.92871 -2.1758423 -30.871399z" fill-rule="evenodd"/><path stroke="#000000" stroke-width="1.0" stroke-linejoin="round" stroke-linecap="butt" d="m232.67444 282.97632c-1.159668 -5.942688 -3.4776917 -5.4370117 -4.7821655 -4.7847595c-1.3044586 0.6522217 -3.769455 6.886261 -3.0446167 8.698151c0.7248535 1.8118896 6.016632 -1.232727 7.3937073 2.1732178c1.3770752 3.4059448 0.5065613 6.666687 0.86875916 18.262482c0.36221313 11.595795 1.0144348 50.22528 1.3044586 51.312317c0.29003906 1.0870667 0.72572327 -32.17978 0.43569946 -44.79001c-0.2900238 -12.6102295 -1.0161896 -24.92871 -2.1758423 -30.871399z" fill-rule="evenodd"/><path fill="#000000" d="m237.89261 372.55206c-0.14523315 4.7834473 -0.7248535 21.235352 0 21.742767c0.72483826 0.5074463 4.203842 -13.914703 4.3490753 -18.69815c0.14523315 -4.783478 -2.7528381 -9.495178 -3.4776917 -10.0026245c-0.72483826 -0.5074463 -0.7261505 2.17453 -0.87138367 6.958008z" fill-rule="evenodd"/><path stroke="#000000" stroke-width="1.0" stroke-linejoin="round" stroke-linecap="butt" d="m237.89261 372.55206c-0.14523315 4.7834473 -0.7248535 21.235352 0 21.742767c0.72483826 0.5074463 4.203842 -13.914703 4.3490753 -18.69815c0.14523315 -4.783478 -2.7528381 -9.495178 -3.4776917 -10.0026245c-0.72483826 -0.5074463 -0.7261505 2.17453 -0.87138367 6.958008z" fill-rule="evenodd"/><path fill="#000000" d="m173.61574 145.8053c-4.203415 0.21740723 -15.073486 9.782593 -24.784775 12.608917c-9.711288 2.8263397 -25.728348 -0.07173157 -33.48294 4.3490906c-7.754593 4.420822 -10.290466 15.073486 -13.044617 22.175842c-2.754158 7.102371 -1.7410355 19.713486 -3.4803162 20.438324c-1.7392807 0.7248535 -9.41951 -8.624237 -6.9553833 -16.089233c2.4641342 -7.4650116 20.870522 -24.062561 21.740158 -28.70079c0.86964417 -4.6382294 -16.087486 2.3932648 -16.522308 0.87138367c-0.43482208 -1.5218658 12.898949 -4.4221344 13.9133835 -10.0026245c1.0144348 -5.58049 -6.9571304 -15.146103 -7.826767 -23.480309c-0.86964417 -8.334206 0.3622055 -21.01706 2.6089249 -26.524933c2.2467194 -5.5078735 7.030182 -4.710411 10.871391 -6.5223083c3.8412018 -1.8118973 8.55249 -2.2471619 12.17585 -4.349083c3.623352 -2.1019287 5.7235413 -8.479881 9.564301 -8.262466c3.8407745 0.21740723 11.885834 9.4217 13.480316 9.566925c1.5944977 0.14523315 -7.0297394 -5.289589 -3.9133759 -8.695534c3.1163483 -3.4059525 16.886261 -10.435699 22.611542 -11.740158c5.725281 -1.3044662 7.8263397 3.4063873 11.740158 3.9133835c3.9138184 0.5070038 6.95932 -0.7987747 11.742783 -0.8713913c4.7834625 -0.07261658 16.958008 -2.245842 16.958008 0.43569946c0 2.6815338 -16.812775 12.899826 -16.958008 15.653542c-0.14523315 2.7537155 9.926514 3.7677155 16.086609 0.8687668c6.1601105 -2.8989487 13.916458 -13.841644 20.874023 -18.262466c6.9575653 -4.420822 13.406815 -7.320648 20.871384 -8.262466c7.464569 -0.94182205 16.886261 -0.50481415 23.916016 2.6115494c7.0297546 3.116356 13.116791 10.651352 18.262451 16.086609c5.145691 5.435257 11.379272 12.973755 12.611572 16.524933c1.2322693 3.5511856 -5.217865 2.5354385 -5.217865 4.782158c0 2.2467194 0.7970276 5.8713913 5.217865 8.698158c4.420807 2.8267746 16.016602 3.3346481 21.307068 8.262466c5.2904663 4.927826 8.189423 15.289597 10.435699 21.304459c2.2462769 6.0148773 5.288727 14.494751 3.0419922 14.78479c-2.246704 0.2900238 -15.000427 -12.609802 -16.522308 -13.044632c-1.5218506 -0.43481445 11.667114 12.319778 7.391083 10.435699c-4.2760315 -1.884079 -31.52536 -22.39238 -33.04724 -21.740158c-1.5218811 0.65223694 24.713043 23.76947 23.916016 25.65355c-0.7970276 1.884079 -25.944458 -14.566498 -28.698181 -14.349091c-2.7536926 0.21742249 16.95932 17.175415 12.175873 15.653549c-4.783478 -1.5218658 -38.84735 -26.451874 -40.876648 -24.784775c-2.0292969 1.667099 29.353027 32.68547 28.700775 34.7874c-0.6522217 2.1019287 -32.904175 -25.944443 -32.614166 -22.175858c0.29003906 3.7686005 26.817139 32.757217 34.35434 44.7874c7.5371704 12.030197 13.1154785 26.161865 10.868774 27.393707c-2.2467346 1.231842 -15.942261 -16.23404 -24.34909 -20.002625c-8.40683 -3.7685852 -16.597992 2.2467194 -26.091858 -2.6089172c-9.493881 -4.855652 -28.84253 -27.104996 -30.871399 -26.524948c-2.0288696 0.58006287 24.786087 32.179367 18.698166 30.005264c-6.0879364 -2.174118 -41.818024 -35.077866 -55.225723 -43.04988c-13.4077 -7.972 -22.684174 -4.564743 -25.220474 -4.7821503c-2.536316 -0.21740723 8.408142 4.7821503 10.0026245 3.4776917c1.5944824 -1.3044586 3.7677155 -11.521866 -0.43569946 -11.304459z" fill-rule="evenodd"/><path stroke="#000000" stroke-width="1.0" stroke-linejoin="round" stroke-linecap="butt" d="m173.61574 145.8053c-4.203415 0.21740723 -15.073486 9.782593 -24.784775 12.608917c-9.711288 2.8263397 -25.728348 -0.07173157 -33.48294 4.3490906c-7.754593 4.420822 -10.290466 15.073486 -13.044617 22.175842c-2.754158 7.102371 -1.7410355 19.713486 -3.4803162 20.438324c-1.7392807 0.7248535 -9.41951 -8.624237 -6.9553833 -16.089233c2.4641342 -7.4650116 20.870522 -24.062561 21.740158 -28.70079c0.86964417 -4.6382294 -16.087486 2.3932648 -16.522308 0.87138367c-0.43482208 -1.5218658 12.898949 -4.4221344 13.9133835 -10.0026245c1.0144348 -5.58049 -6.9571304 -15.146103 -7.826767 -23.480309c-0.86964417 -8.334206 0.3622055 -21.01706 2.6089249 -26.524933c2.2467194 -5.5078735 7.030182 -4.710411 10.871391 -6.5223083c3.8412018 -1.8118973 8.55249 -2.2471619 12.17585 -4.349083c3.623352 -2.1019287 5.7235413 -8.479881 9.564301 -8.262466c3.8407745 0.21740723 11.885834 9.4217 13.480316 9.566925c1.5944977 0.14523315 -7.0297394 -5.289589 -3.9133759 -8.695534c3.1163483 -3.4059525 16.886261 -10.435699 22.611542 -11.740158c5.725281 -1.3044662 7.8263397 3.4063873 11.740158 3.9133835c3.9138184 0.5070038 6.95932 -0.7987747 11.742783 -0.8713913c4.7834625 -0.07261658 16.958008 -2.245842 16.958008 0.43569946c0 2.6815338 -16.812775 12.899826 -16.958008 15.653542c-0.14523315 2.7537155 9.926514 3.7677155 16.086609 0.8687668c6.1601105 -2.8989487 13.916458 -13.841644 20.874023 -18.262466c6.9575653 -4.420822 13.406815 -7.320648 20.871384 -8.262466c7.464569 -0.94182205 16.886261 -0.50481415 23.916016 2.6115494c7.0297546 3.116356 13.116791 10.651352 18.262451 16.086609c5.145691 5.435257 11.379272 12.973755 12.611572 16.524933c1.2322693 3.5511856 -5.217865 2.5354385 -5.217865 4.782158c0 2.2467194 0.7970276 5.8713913 5.217865 8.698158c4.420807 2.8267746 16.016602 3.3346481 21.307068 8.262466c5.2904663 4.927826 8.189423 15.289597 10.435699 21.304459c2.2462769 6.0148773 5.288727 14.494751 3.0419922 14.78479c-2.246704 0.2900238 -15.000427 -12.609802 -16.522308 -13.044632c-1.5218506 -0.43481445 11.667114 12.319778 7.391083 10.435699c-4.2760315 -1.884079 -31.52536 -22.39238 -33.04724 -21.740158c-1.5218811 0.65223694 24.713043 23.76947 23.916016 25.65355c-0.7970276 1.884079 -25.944458 -14.566498 -28.698181 -14.349091c-2.7536926 0.21742249 16.95932 17.175415 12.175873 15.653549c-4.783478 -1.5218658 -38.84735 -26.451874 -40.876648 -24.784775c-2.0292969 1.667099 29.353027 32.68547 28.700775 34.7874c-0.6522217 2.1019287 -32.904175 -25.944443 -32.614166 -22.175858c0.29003906 3.7686005 26.817139 32.757217 34.35434 44.7874c7.5371704 12.030197 13.1154785 26.161865 10.868774 27.393707c-2.2467346 1.231842 -15.942261 -16.23404 -24.34909 -20.002625c-8.40683 -3.7685852 -16.597992 2.2467194 -26.091858 -2.6089172c-9.493881 -4.855652 -28.84253 -27.104996 -30.871399 -26.524948c-2.0288696 0.58006287 24.786087 32.179367 18.698166 30.005264c-6.0879364 -2.174118 -41.818024 -35.077866 -55.225723 -43.04988c-13.4077 -7.972 -22.684174 -4.564743 -25.220474 -4.7821503c-2.536316 -0.21740723 8.408142 4.7821503 10.0026245 3.4776917c1.5944824 -1.3044586 3.7677155 -11.521866 -0.43569946 -11.304459z" fill-rule="evenodd"/><path fill="#000000" d="m102.97605 127.225914c-4.203415 -1.0411224 -7.9724426 -2.1023636 -10.871391 -0.43569946c-2.8989487 1.6666641 -6.2322845 6.3049088 -6.5223083 10.435692c-0.29003143 4.1307983 3.6224823 13.479446 4.7821503 14.349091c1.159668 0.86964417 0.5813675 -7.102371 2.17585 -9.131241c1.59449 -2.0288696 5.507004 -3.4046326 7.391075 -3.0419922c1.884079 0.36264038 5.870079 2.7541504 3.913391 5.2178497c-1.9566956 2.4636993 -10.870522 5.0713043 -15.653542 9.564301c-4.7830276 4.4930115 -10.000877 11.813217 -13.044624 17.393707c-3.043747 5.58049 -3.9133835 10.653534 -5.2178497 16.089233c-1.3044586 5.4356995 -3.2611542 11.965439 -2.6089172 16.524933c0.6522293 4.559494 2.0293045 5.6933594 6.5223083 10.832031c4.492996 5.138672 15.36264 14.347321 20.435692 20.0c5.0730515 5.652664 9.205162 13.770767 10.0026245 13.916c0.79746246 0.14523315 -1.8840714 -8.261581 -5.217842 -13.044617c-3.3337784 -4.78302 -11.233597 -10.507874 -14.784782 -15.653534c-3.551178 -5.1456757 -6.59449 -10.509628 -6.5223083 -15.220474c0.0721817 -4.710861 5.2887115 -13.552063 6.9553833 -13.044632c1.6666641 0.5074463 0.07305145 8.697296 3.0446167 16.089249c2.9715652 7.3919525 13.335083 27.320206 14.784775 28.262466c1.4496994 0.94226074 -5.072174 -16.304031 -6.086609 -22.608932c-1.0144348 -6.304886 -0.3622055 -9.09317 0 -15.220459c0.3622055 -6.127304 -0.9431381 -14.328964 2.1732254 -21.54332c3.1163635 -7.21434 13.408577 -14.423004 16.524933 -21.742783c3.1163635 -7.319763 4.2025375 -17.511368 2.173233 -22.175842c-2.0293121 -4.6644897 -10.145676 -4.7699127 -14.349083 -5.8110275z" fill-rule="evenodd"/><path stroke="#000000" stroke-width="1.0" stroke-linejoin="round" stroke-linecap="butt" d="m102.97605 127.225914c-4.203415 -1.0411224 -7.9724426 -2.1023636 -10.871391 -0.43569946c-2.8989487 1.6666641 -6.2322845 6.3049088 -6.5223083 10.435692c-0.29003143 4.1307983 3.6224823 13.479446 4.7821503 14.349091c1.159668 0.86964417 0.5813675 -7.102371 2.17585 -9.131241c1.59449 -2.0288696 5.507004 -3.4046326 7.391075 -3.0419922c1.884079 0.36264038 5.870079 2.7541504 3.913391 5.2178497c-1.9566956 2.4636993 -10.870522 5.0713043 -15.653542 9.564301c-4.7830276 4.4930115 -10.000877 11.813217 -13.044624 17.393707c-3.043747 5.58049 -3.9133835 10.653534 -5.2178497 16.089233c-1.3044586 5.4356995 -3.2611542 11.965439 -2.6089172 16.524933c0.6522293 4.559494 2.0293045 5.6933594 6.5223083 10.832031c4.492996 5.138672 15.36264 14.347321 20.435692 20.0c5.0730515 5.652664 9.205162 13.770767 10.0026245 13.916c0.79746246 0.14523315 -1.8840714 -8.261581 -5.217842 -13.044617c-3.3337784 -4.78302 -11.233597 -10.507874 -14.784782 -15.653534c-3.551178 -5.1456757 -6.59449 -10.509628 -6.5223083 -15.220474c0.0721817 -4.710861 5.2887115 -13.552063 6.9553833 -13.044632c1.6666641 0.5074463 0.07305145 8.697296 3.0446167 16.089249c2.9715652 7.3919525 13.335083 27.320206 14.784775 28.262466c1.4496994 0.94226074 -5.072174 -16.304031 -6.086609 -22.608932c-1.0144348 -6.304886 -0.3622055 -9.09317 0 -15.220459c0.3622055 -6.127304 -0.9431381 -14.328964 2.1732254 -21.54332c3.1163635 -7.21434 13.408577 -14.423004 16.524933 -21.742783c3.1163635 -7.319763 4.2025375 -17.511368 2.173233 -22.175842c-2.0293121 -4.6644897 -10.145676 -4.7699127 -14.349083 -5.8110275z" fill-rule="evenodd"/><path fill="#000000" d="m100.80031 212.61206c-0.36264038 1.5944824 0.724411 4.6382294 3.9133835 9.131226c3.18898 4.492996 11.74147 15.435257 15.220474 17.826767c3.479004 2.3915253 2.8272095 -3.042862 5.6535416 -3.4776764c2.8263397 -0.4348297 8.260712 0.36132812 11.304459 0.86875916c3.043747 0.50743103 5.0735016 3.1176758 6.958008 2.1758575c1.8845215 -0.94181824 3.624237 -5.435257 4.3490753 -7.826782c0.7248535 -2.39151 2.8989563 -6.0874786 0 -6.5223083c-2.898941 -0.43481445 -12.755463 2.6089325 -17.393692 3.913391c-4.638237 1.3044586 -7.754158 3.6237946 -10.435699 3.913391c-2.6815338 0.2895813 -4.0590515 -0.50875854 -5.6535416 -2.1758575c-1.59449 -1.667099 -4.855644 -5.145233 -3.9133835 -7.826767c0.9422531 -2.681549 4.856079 -7.103241 9.566925 -8.262466c4.7108536 -1.1592407 17.53894 2.2489014 18.698166 1.3070831c1.1592255 -0.94181824 -7.901581 -5.9431305 -11.742783 -6.958008c-3.8412094 -1.0148773 -7.898514 0.28915405 -11.304459 0.86875916c-3.4059525 0.57962036 -6.59449 2.1014862 -9.131241 2.6089325c-2.5367432 0.50743103 -5.726593 -1.1587982 -6.0892334 0.43569946z" fill-rule="evenodd"/><path stroke="#000000" stroke-width="1.0" stroke-linejoin="round" stroke-linecap="butt" d="m100.80031 212.61206c-0.36264038 1.5944824 0.724411 4.6382294 3.9133835 9.131226c3.18898 4.492996 11.74147 15.435257 15.220474 17.826767c3.479004 2.3915253 2.8272095 -3.042862 5.6535416 -3.4776764c2.8263397 -0.4348297 8.260712 0.36132812 11.304459 0.86875916c3.043747 0.50743103 5.0735016 3.1176758 6.958008 2.1758575c1.8845215 -0.94181824 3.624237 -5.435257 4.3490753 -7.826782c0.7248535 -2.39151 2.8989563 -6.0874786 0 -6.5223083c-2.898941 -0.43481445 -12.755463 2.6089325 -17.393692 3.913391c-4.638237 1.3044586 -7.754158 3.6237946 -10.435699 3.913391c-2.6815338 0.2895813 -4.0590515 -0.50875854 -5.6535416 -2.1758575c-1.59449 -1.667099 -4.855644 -5.145233 -3.9133835 -7.826767c0.9422531 -2.681549 4.856079 -7.103241 9.566925 -8.262466c4.7108536 -1.1592407 17.53894 2.2489014 18.698166 1.3070831c1.1592255 -0.94181824 -7.901581 -5.9431305 -11.742783 -6.958008c-3.8412094 -1.0148773 -7.898514 0.28915405 -11.304459 0.86875916c-3.4059525 0.57962036 -6.59449 2.1014862 -9.131241 2.6089325c-2.5367432 0.50743103 -5.726593 -1.1587982 -6.0892334 0.43569946z" fill-rule="evenodd"/><path fill="#000000" d="m255.6046 275.22934c-0.5800476 -1.0144348 -5.726593 5.434387 -8.698151 7.3910522c-2.9715729 1.9566956 -7.899399 2.464569 -9.131241 4.3490906c-1.231842 1.8845215 1.232727 4.783905 1.7401581 6.958008c0.50743103 2.1741028 1.5944824 4.4925537 1.3044586 6.086609c-0.2900238 1.5940552 -2.9720001 2.2458496 -3.0446167 3.4776917c-0.07261658 1.231842 1.5218658 4.3482056 2.6089172 3.913391c1.0870514 -0.43481445 3.695984 -3.695984 3.913391 -6.5223083c0.21740723 -2.8263245 -3.6237946 -8.406372 -2.6089172 -10.435699c1.0148621 -2.0292969 6.37883 0.7961426 8.698151 -1.7401428c2.319336 -2.536316 5.7979126 -12.463257 5.2178497 -13.477692z" fill-rule="evenodd"/><path stroke="#000000" stroke-width="1.0" stroke-linejoin="round" stroke-linecap="butt" d="m255.6046 275.22934c-0.5800476 -1.0144348 -5.726593 5.434387 -8.698151 7.3910522c-2.9715729 1.9566956 -7.899399 2.464569 -9.131241 4.3490906c-1.231842 1.8845215 1.232727 4.783905 1.7401581 6.958008c0.50743103 2.1741028 1.5944824 4.4925537 1.3044586 6.086609c-0.2900238 1.5940552 -2.9720001 2.2458496 -3.0446167 3.4776917c-0.07261658 1.231842 1.5218658 4.3482056 2.6089172 3.913391c1.0870514 -0.43481445 3.695984 -3.695984 3.913391 -6.5223083c0.21740723 -2.8263245 -3.6237946 -8.406372 -2.6089172 -10.435699c1.0148621 -2.0292969 6.37883 0.7961426 8.698151 -1.7401428c2.319336 -2.536316 5.7979126 -12.463257 5.2178497 -13.477692z" fill-rule="evenodd"/><path fill="#000000" d="m125.84077 241.5306c0.53150177 0.6041107 0.303154 1.4269409 0.1889801 2.3123322c-0.11417389 0.88539124 -0.45713043 2.2707825 -0.8740158 3.0c-0.41688538 0.7292175 -1.189415 1.7607117 -1.6272964 1.3753357c-0.43788147 -0.38539124 -0.88539124 -2.3543396 -1.0 -3.6876678c-0.114608765 -1.3333435 -0.2397232 -3.8123322 0.31233215 -4.312332c0.55205536 -0.5 2.4685059 0.70822144 3.0 1.3123322z" fill-rule="evenodd"/><path stroke="#000000" stroke-width="1.0" stroke-linejoin="round" stroke-linecap="butt" d="m125.84077 241.5306c0.53150177 0.6041107 0.303154 1.4269409 0.1889801 2.3123322c-0.11417389 0.88539124 -0.45713043 2.2707825 -0.8740158 3.0c-0.41688538 0.7292175 -1.189415 1.7607117 -1.6272964 1.3753357c-0.43788147 -0.38539124 -0.88539124 -2.3543396 -1.0 -3.6876678c-0.114608765 -1.3333435 -0.2397232 -3.8123322 0.31233215 -4.312332c0.55205536 -0.5 2.4685059 0.70822144 3.0 1.3123322z" fill-rule="evenodd"/><path fill="#000000" d="m124.34154 248.46751c0.17716217 -0.26026917 1.896759 -0.24803162 3.1259842 -0.7480316c1.2292252 -0.5 2.5826797 -1.1684113 4.2493362 -2.2519684c1.6666718 -1.0835419 5.5214386 -4.582672 5.750656 -4.249344c0.22923279 0.3333435 -2.5314941 4.9055176 -4.3753204 6.249344c-1.8438416 1.3438416 -5.229225 1.6469879 -6.687668 1.8136597c-1.4584427 0.1666565 -2.240158 -0.55337524 -2.0629883 -0.81365967z" fill-rule="evenodd"/><path stroke="#000000" stroke-width="1.0" stroke-linejoin="round" stroke-linecap="butt" d="m124.34154 248.46751c0.17716217 -0.26026917 1.896759 -0.24803162 3.1259842 -0.7480316c1.2292252 -0.5 2.5826797 -1.1684113 4.2493362 -2.2519684c1.6666718 -1.0835419 5.5214386 -4.582672 5.750656 -4.249344c0.22923279 0.3333435 -2.5314941 4.9055176 -4.3753204 6.249344c-1.8438416 1.3438416 -5.229225 1.6469879 -6.687668 1.8136597c-1.4584427 0.1666565 -2.240158 -0.55337524 -2.0629883 -0.81365967z" fill-rule="evenodd"/><path fill="#000000" d="m124.52855 248.53024c-0.72922516 -1.1146088 -4.229225 -3.1465454 -5.31234 -3.0630035c-1.0831146 0.08355713 -1.9365692 2.0328217 -1.186348 3.5643158c0.7502136 1.5314941 3.5940475 4.291336 5.68766 5.6246643c2.0936127 1.3333435 6.895012 2.7922058 6.874016 2.3753357c-0.020996094 -0.41690063 -5.989502 -3.4597626 -7.0 -4.876648c-1.010498 -1.4168854 1.6662292 -2.5100555 0.9370117 -3.6246643z" fill-rule="evenodd"/><path stroke="#000000" stroke-width="1.0" stroke-linejoin="round" stroke-linecap="butt" d="m124.52855 248.53024c-0.72922516 -1.1146088 -4.229225 -3.1465454 -5.31234 -3.0630035c-1.0831146 0.08355713 -1.9365692 2.0328217 -1.186348 3.5643158c0.7502136 1.5314941 3.5940475 4.291336 5.68766 5.6246643c2.0936127 1.3333435 6.895012 2.7922058 6.874016 2.3753357c-0.020996094 -0.41690063 -5.989502 -3.4597626 -7.0 -4.876648c-1.010498 -1.4168854 1.6662292 -2.5100555 0.9370117 -3.6246643z" fill-rule="evenodd"/><path fill="#000000" d="m118.86592 280.79593c0.25022125 -0.8333435 3.5835571 2.4164429 5.0 5.0c1.4164505 2.5835571 3.4155731 7.6679688 3.4986877 10.501312c0.083114624 2.8333435 -1.0 5.2489014 -3.0 6.4986877c-2.0 1.2497864 -6.8333282 0.1666565 -9.0 1.0c-2.1666641 0.8333435 -2.2502136 4.416443 -4.0 4.0c-1.7497787 -0.41644287 -5.915573 -4.082245 -6.4986877 -6.4986877c-0.5831146 -2.4164429 1.0835571 -7.5830994 3.0 -8.0c1.9164505 -0.41687012 6.082245 4.9155884 8.498688 5.4986877c2.4164505 0.5831299 5.0 -0.6666565 6.0 -2.0c1.0 -1.3333435 0.5831146 -3.3333435 0 -6.0c-0.5831146 -2.6666565 -3.7489014 -9.1666565 -3.4986877 -10.0z" fill-rule="evenodd"/><path stroke="#000000" stroke-width="1.0" stroke-linejoin="round" stroke-linecap="butt" d="m118.86592 280.79593c0.25022125 -0.8333435 3.5835571 2.4164429 5.0 5.0c1.4164505 2.5835571 3.4155731 7.6679688 3.4986877 10.501312c0.083114624 2.8333435 -1.0 5.2489014 -3.0 6.4986877c-2.0 1.2497864 -6.8333282 0.1666565 -9.0 1.0c-2.1666641 0.8333435 -2.2502136 4.416443 -4.0 4.0c-1.7497787 -0.41644287 -5.915573 -4.082245 -6.4986877 -6.4986877c-0.5831146 -2.4164429 1.0835571 -7.5830994 3.0 -8.0c1.9164505 -0.41687012 6.082245 4.9155884 8.498688 5.4986877c2.4164505 0.5831299 5.0 -0.6666565 6.0 -2.0c1.0 -1.3333435 0.5831146 -3.3333435 0 -6.0c-0.5831146 -2.6666565 -3.7489014 -9.1666565 -3.4986877 -10.0z" fill-rule="evenodd"/><path fill="#000000" d="m135.86613 269.70407c-0.7502136 0.8333435 -4.5013123 16.666656 -4.5013123 19.0c0 2.3333435 3.7510986 -1.8333435 4.5013123 -5.0c0.7502289 -3.1666565 0.7502289 -14.8333435 0 -14.0z" fill-rule="evenodd"/><path stroke="#000000" stroke-width="1.0" stroke-linejoin="round" stroke-linecap="butt" d="m135.86613 269.70407c-0.7502136 0.8333435 -4.5013123 16.666656 -4.5013123 19.0c0 2.3333435 3.7510986 -1.8333435 4.5013123 -5.0c0.7502289 -3.1666565 0.7502289 -14.8333435 0 -14.0z" fill-rule="evenodd"/><path fill="#000000" d="m112.865265 325.70407c-0.9168854 -1.2497864 2.248909 -2.0822449 5.4986877 -2.4986877c3.2497864 -0.41644287 10.0 -1.2497864 14.0 0c4.0 1.2497864 10.083115 6.665344 10.0 7.4986877c-0.083114624 0.8333435 -7.415573 -2.4986877 -10.498688 -2.4986877c-3.0831146 0 -4.8333282 2.9155579 -8.0 2.4986877c-3.1666641 -0.41690063 -10.083115 -3.7502136 -11.0 -5.0z" fill-rule="evenodd"/><path stroke="#000000" stroke-width="1.0" stroke-linejoin="round" stroke-linecap="butt" d="m112.865265 325.70407c-0.9168854 -1.2497864 2.248909 -2.0822449 5.4986877 -2.4986877c3.2497864 -0.41644287 10.0 -1.2497864 14.0 0c4.0 1.2497864 10.083115 6.665344 10.0 7.4986877c-0.083114624 0.8333435 -7.415573 -2.4986877 -10.498688 -2.4986877c-3.0831146 0 -4.8333282 2.9155579 -8.0 2.4986877c-3.1666641 -0.41690063 -10.083115 -3.7502136 -11.0 -5.0z" fill-rule="evenodd"/><path fill="#000000" d="m138.86516 335.20496c-0.25021362 -1.4169006 1.832016 2.9986877 -0.50131226 5.4986877c-2.3333282 2.5 -12.665352 7.1679688 -13.498688 9.501312c-0.8333359 2.333313 5.9986877 4.665344 8.498688 4.4986877c2.5 -0.16668701 5.584427 -2.248932 6.5013123 -5.4986877c0.9168854 -3.2497864 -0.7497864 -12.58313 -1.0 -14.0z" fill-rule="evenodd"/><path stroke="#000000" stroke-width="1.0" stroke-linejoin="round" stroke-linecap="butt" d="m138.86516 335.20496c-0.25021362 -1.4169006 1.832016 2.9986877 -0.50131226 5.4986877c-2.3333282 2.5 -12.665352 7.1679688 -13.498688 9.501312c-0.8333359 2.333313 5.9986877 4.665344 8.498688 4.4986877c2.5 -0.16668701 5.584427 -2.248932 6.5013123 -5.4986877c0.9168854 -3.2497864 -0.7497864 -12.58313 -1.0 -14.0z" fill-rule="evenodd"/><path fill="#000000" d="m147.86562 379.29718c0.8333435 -1.6666565 5.1666718 -3.4177551 11.0 -5.5013123c5.8333435 -2.0835571 14.250229 -3.1666565 24.0 -7.0c9.749786 -3.833313 28.082245 -15.41687 34.498688 -16.0c6.416458 -0.58309937 2.6666718 7.417755 4.0 12.501312c1.3333435 5.083557 -1.6666565 10.083557 4.0 18.0c5.6666718 7.916443 28.083115 26.582245 30.0 29.498688c1.9168854 2.9164429 -12.165344 -7.583557 -18.498688 -12.0c-6.3333282 -4.416443 -14.001312 -10.415558 -19.501312 -14.498688c-5.5 -4.0830994 -7.165344 -9.1666565 -13.498688 -10.0c-6.3333282 -0.833313 -16.167969 3.4169006 -24.501312 5.0c-8.333328 1.5831299 -20.248901 4.4986877 -25.498688 4.4986877c-5.249771 0 -6.8333282 -2.8320007 -6.0 -4.4986877z" fill-rule="evenodd"/><path stroke="#000000" stroke-width="1.0" stroke-linejoin="round" stroke-linecap="butt" d="m147.86562 379.29718c0.8333435 -1.6666565 5.1666718 -3.4177551 11.0 -5.5013123c5.8333435 -2.0835571 14.250229 -3.1666565 24.0 -7.0c9.749786 -3.833313 28.082245 -15.41687 34.498688 -16.0c6.416458 -0.58309937 2.6666718 7.417755 4.0 12.501312c1.3333435 5.083557 -1.6666565 10.083557 4.0 18.0c5.6666718 7.916443 28.083115 26.582245 30.0 29.498688c1.9168854 2.9164429 -12.165344 -7.583557 -18.498688 -12.0c-6.3333282 -4.416443 -14.001312 -10.415558 -19.501312 -14.498688c-5.5 -4.0830994 -7.165344 -9.1666565 -13.498688 -10.0c-6.3333282 -0.833313 -16.167969 3.4169006 -24.501312 5.0c-8.333328 1.5831299 -20.248901 4.4986877 -25.498688 4.4986877c-5.249771 0 -6.8333282 -2.8320007 -6.0 -4.4986877z" fill-rule="evenodd"/><path fill="#000000" d="m107.13539 296.03445c-0.9168854 -1.666687 -6.583557 -4.334656 -8.0 -4.5013123c-1.4164505 -0.16668701 -1.1653595 2.6264038 -0.49868774 3.5013123c0.6666641 0.8748779 3.4986877 0.664917 4.4986877 1.7480164c1.0 1.0831299 0.8346405 4.8753357 1.5013123 4.7506714c0.6666641 -0.12466431 3.4155731 -3.8320312 2.4986877 -5.4986877z" fill-rule="evenodd"/><path stroke="#000000" stroke-width="1.0" stroke-linejoin="round" stroke-linecap="butt" d="m107.13539 296.03445c-0.9168854 -1.666687 -6.583557 -4.334656 -8.0 -4.5013123c-1.4164505 -0.16668701 -1.1653595 2.6264038 -0.49868774 3.5013123c0.6666641 0.8748779 3.4986877 0.664917 4.4986877 1.7480164c1.0 1.0831299 0.8346405 4.8753357 1.5013123 4.7506714c0.6666641 -0.12466431 3.4155731 -3.8320312 2.4986877 -5.4986877z" fill-rule="evenodd"/><path fill="#000000" d="m106.388885 241.44444c0.16667175 -0.9168854 1.4982529 5.9566956 1.7480316 8.748032c0.24978638 2.791336 1.208664 3.041565 -0.24934387 8.0c-1.4580002 4.958435 -8.373573 22.167114 -8.498688 21.750671c-0.12510681 -0.4164734 6.5813675 -17.832916 7.7480316 -24.24936c1.1666718 -6.416443 -0.91469574 -13.3324585 -0.7480316 -14.249344z" fill-rule="evenodd"/><path stroke="#000000" stroke-width="1.0" stroke-linejoin="round" stroke-linecap="butt" d="m106.388885 241.44444c0.16667175 -0.9168854 1.4982529 5.9566956 1.7480316 8.748032c0.24978638 2.791336 1.208664 3.041565 -0.24934387 8.0c-1.4580002 4.958435 -8.373573 22.167114 -8.498688 21.750671c-0.12510681 -0.4164734 6.5813675 -17.832916 7.7480316 -24.24936c1.1666718 -6.416443 -0.91469574 -13.3324585 -0.7480316 -14.249344z" fill-rule="evenodd"/></g></svg>